#!OML:ASF F:\VICON\USERDATA\INSTALL\rory3\rory3.ASF
:FULLY-SPECIFIED
:DEGREES
102
root 0.7103060690649978 17.834716094133157 38.06972400454737 -4.034462558393434 -2.6862154844759116 -0.9873290664052232
lfemur -10.692171894831775 -2.7719744856752953 -21.296167944763795
ltibia 27.779410924440832
lfoot -12.697447408516073 -1.69976049096463
ltoes -1.0953635451109158
rfemur -13.555917536039932 1.481207215798222 21.8787683934576
rtibia 66.8474357682929
rfoot 1.82279648833355 -7.634133511202154
rtoes 8.15160113483069
lowerback 10.311126767682918 1.6020994115342035 0.26465291910525923
upperback 0.54171491922257 2.154188373873308 0.3577161638068427
thorax -5.90534522387014 1.026287343592185 0.18386898103603933
lowerneck -15.30474242069618 -2.79086665873831 -1.9930957500923328
upperneck 20.64790746468438 -3.6261897417987563 1.0079327371927596
head 9.039473709833258 -1.7145282970461388 0.21341078956421522
lclavicle -1.387790734349246e-15 -1.844037222513085e-15
lhumerus -34.40416955647331 6.94789334456836 80.4720976733008
lradius 26.754429917441755
lwrist 4.742498422836794
lhand -26.525948121829646 23.00006553325044
lfingers 7.125019999999999
lthumb -0.02245270788537046 52.860057541481865
rclavicle -1.391254001872606e-15 -1.8452621525931033e-15
rhumerus -27.156549486424066 -22.90526750989425 -75.81699618362681
rradius 23.049944597884675
rwrist 6.3138143193110405
rhand -17.786908348794242 22.264977442133308
rfingers 7.125019999999999
rthumb 8.45376915087538 -7.598543820506996
103
root 0.717577279593735 17.855267473152864 37.99505032877927 -4.347515928196351 -3.0841196784258953 -1.3233232783142537
lfemur -9.259220436493615 -2.60939811148134 -21.396356890056413
ltibia 28.62225312660329
lfoot -13.778280853115515 -0.8148504166917638
ltoes -0.7434379722209279
rfemur -17.236957375666073 1.9270927806013698 22.40534887670324
rtibia 68.04069402476684
rfoot -0.3868236875842257 -8.186069790818776
rtoes 8.396675510082533
lowerback 10.534875312386667 1.4903965160016273 0.36451471523121315
upperback 0.6644486191559633 1.982589863383243 0.5463700262338582
thorax -5.96422821543577 0.9675185970974169 0.4620265927274063
lowerneck -15.193560095501846 -2.7464039985866164 -2.1543665281392186
upperneck 20.84914583188574 -3.5094266745369658 1.0167343126798472
head 9.088449074314722 -1.6790057337864477 0.2541677905438754
lclavicle -1.3874086797790987e-15 -1.843682033071599e-15
lhumerus -33.02903025965104 6.518719023507219 80.18926501875369
lradius 28.251934603221628
lwrist 3.9681252043998247
lhand -25.56591588209124 24.86063069110666
lfingers 7.125019999999999
lthumb 0.7714840811427777 54.57258415363321
rclavicle -1.3904985142235318e-15 -1.844714529060782e-15
rhumerus -27.920933402555956 -24.215248844874303 -75.37964997587027
rradius 22.302219740854813
rwrist 8.361655969457159
rhand -17.776257626575767 22.2965222414821
rfingers 7.125019999999999
rthumb 8.412648146674911 -7.548943275272332
104
root 0.740751708134401 17.87354651303041 38.18314206068415 -4.826778774116472 -2.1124884596411384 0.3373491611342363
lfemur -7.093170404002329 -3.1247578673949494 -23.872818336458877
ltibia 28.591059659763175
lfoot -14.325198140961792 -0.9934216787580259
ltoes -0.3846073635443048
rfemur -20.50570449870706 0.42307187269065016 19.939629835581467
rtibia 67.607011606324
rfoot -3.741075560472704 -8.085969315124645
rtoes 9.0487313626126
lowerback 10.450681976215177 0.9014094932681096 -1.0990819955223774
upperback 1.0018965348809517 1.0454902090641458 0.12535857483720347
thorax -5.507794819068109 0.5442959723580287 1.187241293554536
lowerneck -15.342252483069892 -2.622569439982348 -2.1431408198801982
upperneck 20.8479934381148 -3.2737956805906476 0.8747160717325807
head 9.08913492597734 -1.599625020387866 0.2354012851285343
lclavicle -1.3868716883820414e-15 -1.8431828210104133e-15
lhumerus -31.72334367418355 4.857461271685849 80.5134859776738
lradius 29.3322234593191
lwrist 5.104694648643727
lhand -25.76268705837132 24.835197964867987
lfingers 7.125019999999999
lthumb 0.18602897930124018 53.81828227275361
rclavicle -1.3894334206622163e-15 -1.8440062737056844e-15
rhumerus -28.73313590476841 -25.059079451630524 -74.99758783554671
rradius 21.947449388828627
rwrist 7.231203470884658
rhand -17.498829528400144 21.98095027378985
rfingers 7.125019999999999
rthumb 8.661602525191414 -8.064949354396697
105
root 0.7226643056973584 17.834531061887986 38.682883440480744 -4.651085592720461 -1.5176668100552415 -0.8147547698268314
lfemur -5.794152228681186 -3.4579468891791327 -22.695026121240048
ltibia 29.363944498401196
lfoot -16.28158862437431 -1.3638281765821088
ltoes -0.19948262990002386
rfemur -23.12309451965857 0.6359971610158222 21.611600458170194
rtibia 64.3675504002607
rfoot -5.097260925177176 -8.4953576935849
rtoes 6.992662535616594
lowerback 10.620259935959396 0.3913858577521804 -0.2932087034854294
upperback 0.8777163291754524 0.46733440924565844 0.7646593294880107
thorax -5.721774940224475 0.246298578045632 1.2974312555613245
lowerneck -15.196740332251784 -2.691278496821662 -2.483964502571066
upperneck 20.813153216898897 -3.352662641744926 1.0545636060868964
head 9.061988320085534 -1.640561454395592 0.3322543753149939
lclavicle -1.3868536379223956e-15 -1.8431657646124657e-15
lhumerus -30.609650997457717 4.029357754166546 80.36896126296146
lradius 30.66502316121005
lwrist 4.988866990062277
lhand -25.00074752676005 26.251794292253166
lfingers 7.125019999999999
lthumb 1.0627647371964897 55.233111066395544
rclavicle -1.3907211866206672e-15 -1.845151640768353e-15
rhumerus -29.824967918841235 -24.770524299720385 -74.69540115407244
rradius 22.184483308577704
rwrist 6.336980801042023
rhand -17.493497090813705 22.127893156073664
rfingers 7.125019999999999
rthumb 8.651895219584787 -7.9110340369743515
106
root 0.7068615548682633 17.798186437166695 38.98169916427253 -4.306832911503429 -0.9873911787668102 -0.47644493185145875
lfemur -3.9380768186238884 -3.4132885880688293 -23.252220982877077
ltibia 28.68675070570143
lfoot -17.371944541052518 -1.9449944754494104
ltoes -1.3854927729546582
rfemur -25.49861343833017 0.307713037988405 21.501267354199225
rtibia 59.085940997606436
rfoot -6.132933354160237 -8.933524679819886
rtoes 3.6164278182953
lowerback 10.640362698319084 0.09147496459212529 -0.8280136934800479
upperback 0.930339677163497 -0.054181557248354384 0.8158566080112848
thorax -5.6454810752463125 0.008220057735528474 1.7175197594661253
lowerneck -15.427742784944815 -2.6756676610303898 -2.6168385754254606
upperneck 20.729458051540373 -3.2779005431527097 1.145453236324618
head 9.089186177579526 -1.6124763273106029 0.38329525052425145
lclavicle -1.3870369893329228e-15 -1.8433353762063527e-15
lhumerus -29.418704350425806 2.809209208071112 80.3547481850044
lradius 32.25954682400264
lwrist 6.136124313283828
lhand -25.97580709925942 25.134907841489817
lfingers 7.125019999999999
lthumb 0.5308815077884881 54.805025824317525
rclavicle -1.3927364588446078e-15 -1.847024698434311e-15
rhumerus -30.831088134561405 -24.245589692595367 -74.5149434053354
rradius 22.805861388160846
rwrist 5.428318351673962
rhand -17.66450923835405 21.97350079720211
rfingers 7.125019999999999
rthumb 8.549084921852797 -7.98172778123476
107
root 0.6828602653726221 17.789064808884294 39.59079124428429 -3.791121067434898 -0.44030105544869236 -0.12507349835675852
lfemur -1.770596159562717 -3.1052510677453413 -23.767113606033053
ltibia 27.046619847276368
lfoot -18.0273034554472 -2.131384850084934
ltoes -1.1605197848372635
rfemur -26.62813460980598 0.5361013245550392 21.136525339723562
rtibia 51.34433335792086
rfoot -6.435118533528996 -9.999067250196417
rtoes 6.844869023672061
lowerback 10.504701968674464 -0.22303112536542696 -1.3750797269296613
upperback 1.0090794240893055 -0.5907073759174943 0.8599985078944703
thorax -5.346090105083121 -0.23675473348040138 2.1629774755513216
lowerneck -15.600172834131396 -2.753259843275815 -2.8624234685606043
upperneck 20.58782533567129 -3.4074571824043165 1.3606644739325489
head 9.092232066202998 -1.6542986412112521 0.4740652869159288
lclavicle -1.3854434379118038e-15 -1.8418542254172177e-15
lhumerus -28.18539763246288 1.5127851068854767 80.35547491884452
lradius 33.57334146829461
lwrist 5.324210868583179
lhand -25.40588221671453 26.937962795309076
lfingers 7.125019999999999
lthumb 0.9423857405376661 56.33055169330983
rclavicle -1.3908426983514129e-15 -1.8453884005504045e-15
rhumerus -31.714988459737334 -23.586552840780644 -74.68146336501516
rradius 23.435528569414
rwrist 4.381656160051654
rhand -17.69598469084996 21.912205754815716
rfingers 7.125019999999999
rthumb 8.594789065523582 -7.77540915385656
108
root 0.6457202843212367 17.77789769051071 39.73506825712978 -3.0466226974636554 -0.09800959539400167 0.026062893743857174
lfemur 0.7022193594799937 -2.824079178506522 -23.936981808970252
ltibia 24.4663451168047
lfoot -17.971233893455917 -2.9862756485919815
ltoes -0.47993018056297787
rfemur -26.75006636048216 1.9529198472044018 20.646433389569786
rtibia 41.36685383991083
rfoot -5.39417875258035 -11.644610006775743
rtoes 1.3612804354238892
lowerback 10.28199943835764 -0.4133790340834454 -1.6935143409212796
upperback 0.7547665145224262 -0.9045855681210311 0.9003586993308186
thorax -5.356989787929386 -0.389415356360117 2.5099479083160365
lowerneck -15.64286090949737 -2.758787876776562 -2.9775829302324217
upperneck 20.157278813680307 -3.398455287836774 1.6346013554243424
head 8.91525427367353 -1.6431261675673077 0.5782829958450073
lclavicle -1.385775438521229e-15 -1.8421626914619283e-15
lhumerus -27.130907320923033 0.018734383181776337 80.37620349071412
lradius 34.42339831393809
lwrist 6.12104766695846
lhand -27.167541865139192 25.284147812793407
lfingers 7.125019999999999
lthumb -0.3283424519242085 55.50534601386486
rclavicle -1.3926413170043783e-15 -1.847139316416318e-15
rhumerus -32.33195178542434 -23.57692394276446 -74.37911398390044
rradius 23.10875148500742
rwrist 4.2348134554633825
rhand -17.55889871156721 22.067096266724576
rfingers 7.125019999999999
rthumb 8.72220524092985 -7.54111414726671
